<?xml version="1.0" standalone="no"?>
<!DOCTYPE svg PUBLIC "-//W3C//DTD SVG 20010904//EN"
 "http://www.w3.org/TR/2001/REC-SVG-20010904/DTD/svg10.dtd">
<svg version="1.0" xmlns="http://www.w3.org/2000/svg"
 width="640.000000pt" height="640.000000pt" viewBox="0 0 640.000000 640.000000"
 preserveAspectRatio="xMidYMid meet">
<metadata>
Created by potrace 1.11, written by Peter Selinger 2001-2013
</metadata>
<g transform="translate(0.000000,640.000000) scale(0.100000,-0.100000)"
fill="#000000" stroke="none">
<path d="M2995 5593 c-391 -44 -712 -148 -1015 -326 -74 -44 -246 -160 -260
-176 -3 -3 -30 -26 -60 -51 -287 -235 -548 -597 -690 -955 -34 -84 -96 -281
-104 -328 -3 -15 -7 -35 -10 -45 -6 -18 -7 -27 -32 -167 -18 -103 -27 -468
-13 -580 17 -142 26 -191 55 -315 105 -446 317 -825 644 -1150 179 -179 366
-315 590 -432 105 -55 302 -138 327 -138 7 0 21 -4 31 -10 49 -27 305 -85 462
-104 129 -15 408 -18 515 -5 98 12 146 19 175 24 14 3 36 7 50 10 56 10 129
28 195 48 39 11 76 22 83 23 28 5 211 79 301 121 228 107 463 274 651 463 277
277 462 575 586 943 32 94 75 263 88 347 4 19 8 46 11 60 13 68 20 183 19 355
0 232 -7 302 -49 500 -136 628 -509 1166 -1055 1517 -214 139 -486 254 -740
314 -73 18 -68 17 -205 39 -92 15 -466 27 -550 18z m1734 -1761 c197 -77 266
-238 266 -627 0 -161 -7 -241 -34 -371 -58 -282 -200 -572 -391 -800 -72 -85
-205 -211 -280 -265 -25 -18 -46 -36 -48 -41 -2 -4 -8 -8 -12 -8 -5 0 -28 -13
-52 -29 -190 -128 -444 -225 -691 -266 -12 -2 -38 -7 -57 -10 -75 -13 -356
-13 -455 1 -351 48 -660 182 -930 404 -69 57 -228 224 -285 302 -103 138 -208
335 -260 488 -61 178 -6 344 148 449 171 115 525 298 772 398 47 18 94 38 105
43 175 76 703 228 920 264 17 3 69 12 116 20 48 8 108 18 135 21 27 3 58 8 69
10 11 2 47 7 80 10 33 4 76 8 95 11 19 2 87 7 150 10 63 3 116 7 118 9 2 1
107 2 235 0 209 -2 237 -4 286 -23z"/>
</g>
</svg>
