<svg xmlns="http://www.w3.org/2000/svg" xmlns:xlink="http://www.w3.org/1999/xlink" viewBox="0 0 16 18" enable-background="new 0 0 16 18"><style type="text/css">.st0{enable-background:new ;} .st1{clip-path:url(#SVGID_2_);} .st2{clip-path:url(#SVGID_4_);} .st3{clip-path:url(#SVGID_6_);enable-background:new ;} .st4{clip-path:url(#SVGID_8_);} .st5{clip-path:url(#SVGID_10_);} .st6{clip-path:url(#SVGID_12_);fill:#DD0000;}</style><g class="st0"><defs><path id="SVGID_1_" d="M0 0h16v17h-16z"/></defs><clipPath id="SVGID_2_"><use xlink:href="#SVGID_1_" overflow="visible"/></clipPath><g class="st1"><defs><path id="SVGID_3_" d="M0 0h16v17.3h-16"/></defs><clipPath id="SVGID_4_"><use xlink:href="#SVGID_3_" overflow="visible"/></clipPath><g class="st2"><defs><path id="SVGID_5_" d="M0 0h16v17h-16z"/></defs><clipPath id="SVGID_6_"><use xlink:href="#SVGID_5_" overflow="visible"/></clipPath><g class="st3"><defs><path id="SVGID_7_" d="M0 0h16v17h-16z"/></defs><clipPath id="SVGID_8_"><use xlink:href="#SVGID_7_" overflow="visible"/></clipPath><g class="st4"><defs><path id="SVGID_9_" d="M8 0l-1.4 2.6c-.2.3-.4.3-.7.1l-1-.5.8 4c.1.7-.4.7-.7.4l-1.8-2-.2 1c0 .1-.2.3-.4.2l-2.3-.4.6 2.1c.1.5.2.7-.1.8l-.8.4 3.8 3.1c.2.1.3.3.2.5l-.3 1.1 3.8-.5c.1 0 .3.2.3.3l-.2 4h.6l-.1-4c0-.1.2-.3.3-.3l3.8.5-.2-1.1c-.1-.2 0-.4.2-.5l3.8-3.1-.8-.4c-.3-.1-.3-.3-.1-.8l.6-2.1-2.2.5c-.2 0-.4-.1-.4-.2l-.3-1-1.8 2c-.3.3-.8.3-.6-.4l.8-4-1 .5c-.4.1-.7.1-.8-.2"/></defs><clipPath id="SVGID_10_"><use xlink:href="#SVGID_9_" overflow="visible"/></clipPath><g class="st5"><defs><path id="SVGID_11_" d="M0 0h16v17h-16z"/></defs><clipPath id="SVGID_12_"><use xlink:href="#SVGID_11_" overflow="visible"/></clipPath><path class="st6" d="M-5-5h26v27.3h-26z"/></g></g></g></g></g></g></svg>