<?xml version="1.0" encoding="UTF-8" standalone="no"?>
<svg width="40px" height="24px" viewBox="0 0 40 24" version="1.1" xmlns="http://www.w3.org/2000/svg" xmlns:xlink="http://www.w3.org/1999/xlink" xmlns:sketch="http://www.bohemiancoding.com/sketch/ns">
    <!-- Generator: Sketch 3.4.4 (17249) - http://www.bohemiancoding.com/sketch -->
    <title>Page 1</title>
    <desc>Created with Sketch.</desc>
    <defs></defs>
    <g id="Page-1" stroke="none" stroke-width="1" fill="none" fill-rule="evenodd" sketch:type="MSPage">
        <g id="Pre-launch_desktop" sketch:type="MSArtboardGroup" transform="translate(-1046.000000, -2463.000000)" fill="#C3C7D0">
            <g id="Page-1" sketch:type="MSLayerGroup" transform="translate(1046.000000, 2463.000000)">
                <path d="M17.3048539,12.1083568 C18.0163146,12.6372216 18.9706217,12.9283568 19.9920449,12.9283568 C21.0133184,12.9283568 21.9677753,12.6372216 22.679236,12.1083568 L38.7285243,0.1796 C38.4401348,0.0799243243 38.1183371,0.0224108108 37.7772135,0.0224108108 L2.2068764,0.0224108108 C1.865603,0.0224108108 1.54380524,0.0799243243 1.25556554,0.1796 L17.3048539,12.1083568 Z" id="Fill-1" sketch:type="MSShapeGroup"></path>
                <path d="M24.2929483,13 L23.7568108,13.4026748 C22.7607846,14.1505773 21.4248601,14.5624262 19.9950104,14.5624262 C18.5651607,14.5624262 17.2292362,14.1505773 16.2333597,13.4026748 L15.6970725,13 L1.26000977,23.8412018 C1.54837652,23.9418978 1.86999907,24 2.21124554,24 L37.778925,24 C38.1198719,24 38.4416442,23.9418978 38.730011,23.8410925 L24.2929483,13 Z" id="Fill-3" sketch:type="MSShapeGroup"></path>
                <path d="M39.7803446,22.4239676 C39.9097828,22.221373 39.9839401,21.9966162 39.9839401,21.7588865 L39.9839401,1.61488649 C39.9839401,1.37715676 39.9097828,1.1524 39.7803446,0.949805405 L25.3343521,11.6868865 L39.7803446,22.4239676 Z" id="Fill-6" sketch:type="MSShapeGroup"></path>
                <path d="M14.6497228,11.6868757 L0.203580524,0.949686486 C0.0741423221,1.15228108 -1.49812734e-05,1.37714595 -1.49812734e-05,1.61487568 L-1.49812734e-05,21.7588757 C-1.49812734e-05,21.9966054 0.0741423221,22.2213622 0.203580524,22.4240649 L14.6497228,11.6868757 Z" id="Fill-8" sketch:type="MSShapeGroup"></path>
            </g>
        </g>
    </g>
</svg>