<?xml version="1.0" encoding="UTF-8" standalone="no"?>
<svg width="80px" height="80px" viewBox="0 0 80 80" version="1.1" xmlns="http://www.w3.org/2000/svg" xmlns:xlink="http://www.w3.org/1999/xlink">
    <!-- Generator: Sketch 39.1 (31720) - http://www.bohemiancoding.com/sketch -->
    <title>instagram</title>
    <desc>Created with Sketch.</desc>
    <defs></defs>
    <g id="Page-1" stroke="none" stroke-width="1" fill="none" fill-rule="evenodd">
        <g id="Pre-launch_desktop" transform="translate(-1138.000000, -2414.000000)" fill="#000000">
            <g id="instagram" transform="translate(1138.000000, 2414.000000)">
                <g id="Layer_1">
                    <g id="XMLID_21_">
                        <path d="M40,7.16666667 C50.6666667,7.16666667 51.9166667,7.16666667 56.1666667,7.41666667 C60.0833333,7.58333333 62.1666667,8.25 63.5833333,8.83333333 C65.4166667,9.58333333 66.75,10.4166667 68.1666667,11.8333333 C69.5833333,13.25 70.4166667,14.5833333 71.1666667,16.4166667 C71.75,17.8333333 72.3333333,19.9166667 72.5833333,23.8333333 C72.75,28.0833333 72.8333333,29.3333333 72.8333333,40 C72.8333333,50.6666667 72.8333333,51.9166667 72.5833333,56.1666667 C72.4166667,60.0833333 71.75,62.1666667 71.1666667,63.5833333 C70.4166667,65.4166667 69.5833333,66.75 68.1666667,68.1666667 C66.75,69.5833333 65.4166667,70.4166667 63.5833333,71.1666667 C62.1666667,71.75 60.0833333,72.3333333 56.1666667,72.5833333 C51.9166667,72.75 50.6666667,72.8333333 40,72.8333333 C29.3333333,72.8333333 28.0833333,72.8333333 23.8333333,72.5833333 C19.9166667,72.4166667 17.8333333,71.75 16.4166667,71.1666667 C14.5833333,70.4166667 13.25,69.5833333 11.8333333,68.1666667 C10.4166667,66.75 9.58333333,65.4166667 8.83333333,63.5833333 C8.25,62.1666667 7.66666667,60.0833333 7.41666667,56.1666667 C7.25,51.9166667 7.16666667,50.6666667 7.16666667,40 C7.16666667,29.3333333 7.16666667,28.0833333 7.41666667,23.8333333 C7.58333333,19.9166667 8.25,17.8333333 8.83333333,16.4166667 C9.58333333,14.5833333 10.4166667,13.25 11.8333333,11.8333333 C13.25,10.4166667 14.5833333,9.58333333 16.4166667,8.83333333 C17.8333333,8.25 19.9166667,7.66666667 23.8333333,7.41666667 C28.0833333,7.25 29.3333333,7.16666667 40,7.16666667 L40,7.16666667 Z M40,0 C29.1666667,0 27.75,0.0833333333 23.5,0.25 C19.25,0.416666667 16.3333333,1.08333333 13.75,2.08333333 C11.0833333,3.08333333 8.91666667,4.5 6.66666667,6.66666667 C4.41666667,8.91666667 3.08333333,11.0833333 2.08333333,13.75 C1.08333333,16.3333333 0.416666667,19.1666667 0.25,23.5 C0.0833333333,27.75 0,29.1666667 0,40 C0,50.8333333 0.0833333333,52.25 0.25,56.5 C0.416666667,60.75 1.08333333,63.6666667 2.08333333,66.25 C3.08333333,68.9166667 4.5,71.0833333 6.66666667,73.3333333 C8.91666667,75.5833333 11.0833333,76.9166667 13.75,77.9166667 C16.3333333,78.9166667 19.1666667,79.5833333 23.5,79.75 C27.75,79.9166667 29.1666667,80 40,80 C50.8333333,80 52.25,79.9166667 56.5,79.75 C60.75,79.5833333 63.6666667,78.9166667 66.25,77.9166667 C68.9166667,76.9166667 71.0833333,75.5 73.3333333,73.3333333 C75.5833333,71.0833333 76.9166667,68.9166667 77.9166667,66.25 C78.9166667,63.6666667 79.5833333,60.8333333 79.75,56.5 C79.9166667,52.25 80,50.8333333 80,40 C80,29.1666667 79.9166667,27.75 79.75,23.5 C79.5833333,19.25 78.9166667,16.3333333 77.9166667,13.75 C76.9166667,11.0833333 75.5,8.91666667 73.3333333,6.66666667 C71.0833333,4.41666667 68.9166667,3.08333333 66.25,2.08333333 C63.6666667,1.08333333 60.8333333,0.416666667 56.5,0.25 C52.25,0.0833333333 50.8333333,0 40,0 L40,0 L40,0 Z" id="XMLID_26_"></path>
                        <path d="M40,19.5 C28.6666667,19.5 19.5,28.6666667 19.5,40 C19.5,51.3333333 28.6666667,60.5 40,60.5 C51.3333333,60.5 60.5,51.3333333 60.5,40 C60.5,28.6666667 51.3333333,19.5 40,19.5 L40,19.5 Z M40,53.3333333 C32.6666667,53.3333333 26.6666667,47.3333333 26.6666667,40 C26.6666667,32.6666667 32.6666667,26.6666667 40,26.6666667 C47.3333333,26.6666667 53.3333333,32.6666667 53.3333333,40 C53.3333333,47.3333333 47.3333333,53.3333333 40,53.3333333 L40,53.3333333 Z" id="XMLID_23_"></path>
                        <ellipse id="XMLID_22_" cx="61.3333333" cy="18.6666667" rx="4.83333333" ry="4.83333333"></ellipse>
                    </g>
                </g>
            </g>
        </g>
    </g>
</svg>