<?xml version="1.0" encoding="utf-8"?>
<!-- Generator: Adobe Illustrator 19.0.0, SVG Export Plug-In . SVG Version: 6.00 Build 0)  -->
<svg version="1.1" id="Layer_1" xmlns="http://www.w3.org/2000/svg" xmlns:xlink="http://www.w3.org/1999/xlink" x="0px" y="0px"
	 viewBox="0 0 260 96" style="enable-background:new 0 0 260 96;" xml:space="preserve">
<style type="text/css">
	.st0{fill:none;}
	.st1{fill:#FFFFFF;}
</style>
<rect class="st0" width="260" height="96"/>
<g>
	<g>
		<path class="st1" d="M88.1,53.6h9.1c0.2,0.6,0.3,1.2,0.3,1.8c0,0.5,0.1,1.1,0.1,1.6c0,0.5,0,1.1-0.1,1.6c0,0.6-0.2,1.2-0.3,1.8H80
			l0-24.8c0.7-0.2,1.4-0.3,2.1-0.3c0.7-0.1,1.4-0.1,2-0.1c0.6,0,1.3,0,2,0.1c0.7,0.1,1.4,0.2,2.1,0.3L88.1,53.6z"/>
		<path class="st1" d="M99.4,48.1c0-2,0.3-3.7,0.8-5.4c0.5-1.6,1.3-3,2.4-4.2c1-1.2,2.3-2,3.9-2.7c1.5-0.6,3.3-0.9,5.3-0.9
			c2.1,0,3.9,0.3,5.4,0.9c1.5,0.6,2.8,1.5,3.9,2.7c1,1.2,1.8,2.5,2.4,4.2c0.5,1.6,0.8,3.4,0.8,5.4c0,1.9-0.3,3.7-0.8,5.3
			c-0.5,1.6-1.3,2.9-2.4,4.1c-1,1.1-2.3,2-3.9,2.6c-1.5,0.6-3.3,0.9-5.4,0.9c-2,0-3.8-0.3-5.3-0.9c-1.5-0.6-2.8-1.5-3.9-2.6
			c-1-1.1-1.8-2.5-2.4-4.1C99.6,51.8,99.4,50,99.4,48.1z M115.9,48.1c0-2.1-0.3-3.6-1-4.7c-0.7-1.1-1.7-1.6-3.2-1.6
			c-1.4,0-2.5,0.5-3.1,1.6s-1,2.7-1,4.7c0,2,0.3,3.6,1,4.7s1.7,1.6,3.1,1.6c1.4,0,2.5-0.5,3.2-1.6C115.6,51.7,115.9,50.1,115.9,48.1
			z"/>
		<path class="st1" d="M136.5,53.6h9.1c0.2,0.6,0.3,1.2,0.3,1.8c0,0.5,0.1,1.1,0.1,1.6c0,0.5,0,1.1-0.1,1.6c0,0.6-0.2,1.2-0.3,1.8
			h-17.2l0-24.8c0.7-0.2,1.4-0.3,2.1-0.3c0.7-0.1,1.4-0.1,2-0.1c0.6,0,1.3,0,2,0.1c0.7,0.1,1.4,0.2,2.1,0.3L136.5,53.6z"/>
		<path class="st1" d="M157.6,60.4c-0.8,0.1-1.6,0.2-2.3,0.3c-0.7,0.1-1.3,0.1-1.8,0.1c-0.5,0-1.2,0-1.8-0.1
			c-0.7-0.1-1.4-0.2-2.2-0.3V35.6c0.7-0.2,1.4-0.3,2.1-0.3c0.7-0.1,1.4-0.1,2-0.1c0.6,0,1.3,0,2,0.1c0.7,0.1,1.4,0.2,2.1,0.3V60.4z"
			/>
		<path class="st1" d="M171.1,53v7.4c-0.7,0.2-1.4,0.3-2.1,0.3c-0.7,0-1.4,0.1-2,0.1c-0.6,0-1.3,0-2-0.1c-0.7,0-1.4-0.2-2.1-0.3
			V35.6h18.4c0.2,0.6,0.3,1.2,0.3,1.8c0,0.5,0.1,1.1,0.1,1.6c0,0.5,0,1-0.1,1.6s-0.2,1.2-0.3,1.8h-10.3v3.8h8.3
			c0.2,0.6,0.3,1.2,0.3,1.8c0,0.5,0.1,1.1,0.1,1.6c0,0.5,0,1.1-0.1,1.6c0,0.6-0.2,1.2-0.3,1.8H171.1z"/>
		<path class="st1" d="M207,59.3c-0.5,0.2-1.2,0.4-2,0.6c-0.8,0.2-1.6,0.4-2.4,0.6c-0.9,0.2-1.7,0.3-2.6,0.4
			c-0.9,0.1-1.8,0.1-2.6,0.1c-1.6,0-3.2-0.1-4.7-0.4c-1.5-0.3-2.8-0.8-4-1.6c-1.1-0.8-2-1.9-2.7-3.4c-0.7-1.5-1-3.5-1-6v-14
			c0.7-0.2,1.4-0.3,2.1-0.3c0.7-0.1,1.4-0.1,2-0.1c0.6,0,1.3,0,2,0.1c0.7,0.1,1.4,0.2,2.1,0.3v13.4c0,1.9,0.3,3.2,1,3.9
			c0.6,0.7,1.6,1.1,2.9,1.1c0.5,0,1,0,1.3,0c0.3,0,0.5-0.1,0.6-0.1V35.6c0.7-0.2,1.4-0.3,2.1-0.3c0.7-0.1,1.4-0.1,2-0.1
			c0.6,0,1.3,0,2,0.1c0.7,0.1,1.4,0.2,2.1,0.3V59.3z"/>
		<path class="st1" d="M220.5,53.6h9.1c0.2,0.6,0.3,1.2,0.3,1.8c0,0.5,0.1,1.1,0.1,1.6c0,0.5,0,1.1-0.1,1.6c0,0.6-0.2,1.2-0.3,1.8
			h-17.2l0-24.8c0.7-0.2,1.4-0.3,2.1-0.3c0.7-0.1,1.4-0.1,2-0.1c0.6,0,1.3,0,2,0.1c0.7,0.1,1.4,0.2,2.1,0.3L220.5,53.6z"/>
	</g>
	<path class="st1" d="M43.3,30.6c-9.6,2.6-15.3,12.4-12.7,22s12.4,15.3,22,12.7c9.6-2.6,15.3-12.4,12.7-22
		C62.8,33.7,52.9,28,43.3,30.6z M59.7,54.7c-3.7,6.5-12,8.7-18.4,4.9c-3-1.7-5.1-4.4-6.1-7.5c-0.4-1.2,0.1-2.5,1.1-3.1
		c3.1-2,6.7-3.6,10.8-4.7s8-1.5,11.7-1.3c1.2,0.1,2.3,0.9,2.5,2.2C61.9,48.4,61.4,51.8,59.7,54.7z"/>
</g>
</svg>
