<svg xmlns="http://www.w3.org/2000/svg" xmlns:xlink="http://www.w3.org/1999/xlink" viewBox="0 0 200 200" enable-background="new 0 0 200 200"><style type="text/css">.st0{clip-path:url(#XMLID_2_);} .st1{clip-path:url(#XMLID_3_);enable-background:new ;} .st2{clip-path:url(#XMLID_4_);} .st3{clip-path:url(#XMLID_5_);fill:#F8B617;} .st4{clip-path:url(#XMLID_6_);} .st5{clip-path:url(#XMLID_7_);fill:#E07B36;} .st6{clip-path:url(#XMLID_8_);} .st7{clip-path:url(#XMLID_9_);fill:#DB5F3A;} .st8{clip-path:url(#XMLID_10_);} .st9{clip-path:url(#XMLID_11_);fill:#DB5F3A;} .st10{clip-path:url(#XMLID_12_);} .st11{clip-path:url(#XMLID_13_);fill:#E07B36;} .st12{clip-path:url(#XMLID_14_);} .st13{clip-path:url(#XMLID_15_);fill:#E07B36;} .st14{clip-path:url(#XMLID_16_);} .st15{clip-path:url(#XMLID_17_);fill:#DB5F3A;} .st16{clip-path:url(#XMLID_18_);} .st17{clip-path:url(#XMLID_19_);fill:#DB5F3A;} .st18{clip-path:url(#XMLID_2_);fill:none;}</style><g id="XMLID_1956_"><defs><path id="XMLID_1961_" d="M200 100c0 55.2-44.8 100-100 100s-100-44.8-100-100 44.8-100 100-100 100 44.8 100 100"/></defs><clipPath id="XMLID_2_"><use xlink:href="#XMLID_1961_" overflow="visible"/></clipPath><g id="XMLID_1962_" class="st0"><defs><path id="XMLID_1963_" d="M0 0h200v200h-200z"/></defs><clipPath id="XMLID_3_"><use xlink:href="#XMLID_1963_" overflow="visible"/></clipPath><g id="XMLID_1965_" class="st1"><defs><path id="XMLID_1966_" d="M0 0h200v200h-200z"/></defs><clipPath id="XMLID_4_"><use xlink:href="#XMLID_1966_" overflow="visible"/></clipPath><g id="XMLID_2002_" class="st2"><defs><path id="XMLID_2003_" d="M0 0h200v200h-200z"/></defs><clipPath id="XMLID_5_"><use xlink:href="#XMLID_2003_" overflow="visible"/></clipPath><path id="XMLID_2004_" class="st3" d="M-4.5-5h209.4v209.4h-209.4z"/></g><g id="XMLID_1997_" class="st2"><defs><path id="XMLID_1998_" d="M-17 22h246v16.9h-246z"/></defs><clipPath id="XMLID_6_"><use xlink:href="#XMLID_1998_" overflow="visible"/></clipPath><g id="XMLID_1999_" class="st4"><defs><path id="XMLID_2000_" d="M0 0h200v200h-200z"/></defs><clipPath id="XMLID_7_"><use xlink:href="#XMLID_2000_" overflow="visible"/></clipPath><path id="XMLID_2001_" class="st5" d="M-22 17h256v26.9h-256z"/></g></g><g id="XMLID_1992_" class="st2"><defs><path id="XMLID_1993_" d="M-30 53.9h259.5v35h-259.5z"/></defs><clipPath id="XMLID_8_"><use xlink:href="#XMLID_1993_" overflow="visible"/></clipPath><g id="XMLID_1994_" class="st6"><defs><path id="XMLID_1995_" d="M0 0h200v200h-200z"/></defs><clipPath id="XMLID_9_"><use xlink:href="#XMLID_1995_" overflow="visible"/></clipPath><path id="XMLID_1996_" class="st7" d="M-35 48.9h269.5v45h-269.5z"/></g></g><g id="XMLID_1987_" class="st2"><defs><path id="XMLID_1988_" d="M37 187h138.4v16.9h-138.4z"/></defs><clipPath id="XMLID_10_"><use xlink:href="#XMLID_1988_" overflow="visible"/></clipPath><g id="XMLID_1989_" class="st8"><defs><path id="XMLID_1990_" d="M0 0h200v200h-200z"/></defs><clipPath id="XMLID_11_"><use xlink:href="#XMLID_1990_" overflow="visible"/></clipPath><path id="XMLID_1991_" class="st9" d="M32 182h148.4v26.9h-148.4z"/></g></g><g id="XMLID_1982_" class="st2"><defs><path id="XMLID_1983_" d="M-7 89h216v20.5h-216z"/></defs><clipPath id="XMLID_12_"><use xlink:href="#XMLID_1983_" overflow="visible"/></clipPath><g id="XMLID_1984_" class="st10"><defs><path id="XMLID_1985_" d="M0 0h200v200h-200z"/></defs><clipPath id="XMLID_13_"><use xlink:href="#XMLID_1985_" overflow="visible"/></clipPath><path id="XMLID_1986_" class="st11" d="M-12 84h226v30.5h-226z"/></g></g><g id="XMLID_1977_" class="st2"><defs><path id="XMLID_1978_" d="M19 159h162.4v16.9h-162.4z"/></defs><clipPath id="XMLID_14_"><use xlink:href="#XMLID_1978_" overflow="visible"/></clipPath><g id="XMLID_1979_" class="st12"><defs><path id="XMLID_1980_" d="M0 0h200v200h-200z"/></defs><clipPath id="XMLID_15_"><use xlink:href="#XMLID_1980_" overflow="visible"/></clipPath><path id="XMLID_1981_" class="st13" d="M14 154h172.4v26.9h-172.4z"/></g></g><g id="XMLID_1972_" class="st2"><defs><path id="XMLID_1973_" d="M5 137h191.4v22h-191.4z"/></defs><clipPath id="XMLID_16_"><use xlink:href="#XMLID_1973_" overflow="visible"/></clipPath><g id="XMLID_1974_" class="st14"><defs><path id="XMLID_1975_" d="M0 0h200v200h-200z"/></defs><clipPath id="XMLID_17_"><use xlink:href="#XMLID_1975_" overflow="visible"/></clipPath><path id="XMLID_1976_" class="st15" d="M0 132h201.4v32h-201.4z"/></g></g><g id="XMLID_1967_" class="st2"><defs><path id="XMLID_1968_" d="M5-11.5h170.4v35h-170.4z"/></defs><clipPath id="XMLID_18_"><use xlink:href="#XMLID_1968_" overflow="visible"/></clipPath><g id="XMLID_1969_" class="st16"><defs><path id="XMLID_1970_" d="M0 0h200v200h-200z"/></defs><clipPath id="XMLID_19_"><use xlink:href="#XMLID_1970_" overflow="visible"/></clipPath><path id="XMLID_1971_" class="st17" d="M0-16.5h180.4v45h-180.4z"/></g></g></g></g><path id="XMLID_1959_" class="st18" d="M-.5 0h200v200h-200z"/></g></svg>