<svg xmlns="http://www.w3.org/2000/svg" xmlns:xlink="http://www.w3.org/1999/xlink" viewBox="0 0 82 82" enable-background="new 0 0 82 82"><style type="text/css">.st0{clip-path:url(#XMLID_2_);} .st1{clip-path:url(#XMLID_3_);fill:#82CCDC;} .st2{clip-path:url(#XMLID_4_);} .st3{clip-path:url(#XMLID_5_);fill:#4DB8CD;} .st4{clip-path:url(#XMLID_6_);} .st5{clip-path:url(#XMLID_7_);fill:#B8E986;} .st6{clip-path:url(#XMLID_8_);} .st7{clip-path:url(#XMLID_9_);fill:#4DB8CD;} .st8{clip-path:url(#XMLID_10_);} .st9{clip-path:url(#XMLID_11_);fill:#B8E986;} .st10{clip-path:url(#XMLID_12_);} .st11{clip-path:url(#XMLID_13_);fill:#4DB8CD;} .st12{clip-path:url(#XMLID_14_);} .st13{clip-path:url(#XMLID_15_);fill:#B8E986;} .st14{clip-path:url(#XMLID_2_);fill:none;}</style><g id="XMLID_39_"><defs><path id="XMLID_93_" d="M82 41c0 22.6-18.4 41-41 41s-41-18.4-41-41 18.4-41 41-41 41 18.4 41 41"/></defs><clipPath id="XMLID_2_"><use xlink:href="#XMLID_93_" overflow="visible"/></clipPath><g id="XMLID_1979_" class="st0"><defs><path id="XMLID_1980_" d="M-2-1h86v84h-86z"/></defs><clipPath id="XMLID_3_"><use xlink:href="#XMLID_1980_" overflow="visible"/></clipPath><path id="XMLID_1981_" class="st1" d="M-7.2-5.3h95.6v93.4h-95.6z"/></g><g id="XMLID_1974_" class="st0"><defs><path id="XMLID_1975_" d="M-41.9 14.4h175.8v8.1h-175.8z"/></defs><clipPath id="XMLID_4_"><use xlink:href="#XMLID_1975_" overflow="visible"/></clipPath><g id="XMLID_1976_" class="st2"><defs><path id="XMLID_1977_" d="M-2-1h86v84h-86z"/></defs><clipPath id="XMLID_5_"><use xlink:href="#XMLID_1977_" overflow="visible"/></clipPath><path id="XMLID_1978_" class="st3" d="M-47.1 9.2h186.3v18.3h-186.3z"/></g></g><g id="XMLID_1969_" class="st0"><defs><path id="XMLID_1970_" d="M-52.3 27.7h185.4v16.8h-185.4z"/></defs><clipPath id="XMLID_6_"><use xlink:href="#XMLID_1970_" overflow="visible"/></clipPath><g id="XMLID_1971_" class="st4"><defs><path id="XMLID_1972_" d="M-2-1h86v84h-86z"/></defs><clipPath id="XMLID_7_"><use xlink:href="#XMLID_1972_" overflow="visible"/></clipPath><path id="XMLID_1973_" class="st5" d="M-57.6 22.6h195.9v27h-195.9z"/></g></g><g id="XMLID_1964_" class="st0"><defs><path id="XMLID_1965_" d="M-37.7 49.2h154.3v9.8h-154.3z"/></defs><clipPath id="XMLID_8_"><use xlink:href="#XMLID_1965_" overflow="visible"/></clipPath><g id="XMLID_1966_" class="st6"><defs><path id="XMLID_1967_" d="M-2-1h86v84h-86z"/></defs><clipPath id="XMLID_9_"><use xlink:href="#XMLID_1967_" overflow="visible"/></clipPath><path id="XMLID_1968_" class="st7" d="M-42.9 44.1h164.8v20.1h-164.8z"/></g></g><g id="XMLID_1956_" class="st0"><defs><path id="XMLID_1959_" d="M-7.2 76.9h94.5v6.6h-94.5z"/></defs><clipPath id="XMLID_10_"><use xlink:href="#XMLID_1959_" overflow="visible"/></clipPath><g id="XMLID_1961_" class="st8"><defs><path id="XMLID_1962_" d="M-2-1h86v84h-86z"/></defs><clipPath id="XMLID_11_"><use xlink:href="#XMLID_1962_" overflow="visible"/></clipPath><path id="XMLID_1963_" class="st9" d="M-12.5 71.7h105v16.8h-105z"/></g></g><g id="XMLID_885_" class="st0"><defs><path id="XMLID_886_" d="M-27.2 62.5h136.8v10.5h-136.8z"/></defs><clipPath id="XMLID_12_"><use xlink:href="#XMLID_886_" overflow="visible"/></clipPath><g id="XMLID_887_" class="st10"><defs><path id="XMLID_888_" d="M-2-1h86v84h-86z"/></defs><clipPath id="XMLID_13_"><use xlink:href="#XMLID_888_" overflow="visible"/></clipPath><path id="XMLID_889_" class="st11" d="M-32.4 57.4h147.3v20.8h-147.3z"/></g></g><g id="XMLID_208_" class="st0"><defs><path id="XMLID_881_" d="M-27.2 4.1h121.8v5.5h-121.8z"/></defs><clipPath id="XMLID_14_"><use xlink:href="#XMLID_881_" overflow="visible"/></clipPath><g id="XMLID_882_" class="st12"><defs><path id="XMLID_883_" d="M-2-1h86v84h-86z"/></defs><clipPath id="XMLID_15_"><use xlink:href="#XMLID_883_" overflow="visible"/></clipPath><path id="XMLID_884_" class="st13" d="M-32.4-1h132.3v15.7h-132.3z"/></g></g><path id="XMLID_98_" class="st14" d="M-2-1h86v84h-86z"/><path id="XMLID_95_" class="st14" d="M-2-1h86v84h-86z"/><path id="XMLID_91_" class="st14" d="M-2-1h86v84h-86z"/></g></svg>