<?xml version="1.0" encoding="UTF-8" standalone="no"?>
<svg width="1853px" height="1719px" viewBox="0 0 1853 1719" version="1.1" xmlns="http://www.w3.org/2000/svg" xmlns:xlink="http://www.w3.org/1999/xlink">
    <!-- Generator: Sketch 3.7.1 (28215) - http://www.bohemiancoding.com/sketch -->
    <title>Group</title>
    <desc>Created with Sketch.</desc>
    <defs></defs>
    <g id="Page-1" stroke="none" stroke-width="1" fill="none" fill-rule="evenodd">
        <g id="Group">
            <circle id="XMLID_383_" fill="#82CCDC" cx="766.1" cy="1057.1" r="3.1"></circle>
            <circle id="XMLID_5_" fill="#82CCDC" cx="827.7" cy="618.9" r="3.1"></circle>
            <circle id="XMLID_6_" fill="#82CCDC" cx="324.7" cy="691.9" r="3.1"></circle>
            <circle id="XMLID_7_" fill="#82CCDC" cx="1589.7" cy="927.9" r="3.1"></circle>
            <circle id="XMLID_382_" fill="#82CCDC" cx="1021.7" cy="1035.9" r="3.1"></circle>
            <circle id="XMLID_381_" fill="#82CCDC" cx="408.6" cy="1067.8" r="1"></circle>
            <polygon id="XMLID_380_" fill="#82CCDC" points="206 1088.3 208.5 1092.9 213 1095.3 208.5 1097.8 206 1102.4 203.5 1097.8 199 1095.3 203.5 1092.9"></polygon>
            <polygon id="XMLID_3_" fill="#82CCDC" points="1706 1022.3 1708.5 1026.9 1713 1029.3 1708.5 1031.8 1706 1036.4 1703.5 1031.8 1699 1029.3 1703.5 1026.9"></polygon>
            <polygon id="XMLID_4_" fill="#82CCDC" points="139 744 141.5 748.6 146 751 141.5 753.5 139 758.1 136.5 753.5 132 751 136.5 748.6"></polygon>
            <circle id="XMLID_379_" fill="#82CCDC" cx="449.6" cy="1009.8" r="1"></circle>
            <circle id="XMLID_378_" fill="#82CCDC" cx="385.6" cy="927.8" r="1"></circle>
            <circle id="XMLID_34_" fill="#82CCDC" cx="433.6" cy="806.8" r="1"></circle>
            <circle id="XMLID_35_" fill="#82CCDC" cx="384.6" cy="795.8" r="1"></circle>
            <circle id="XMLID_377_" fill="#82CCDC" cx="688.6" cy="950.8" r="1"></circle>
            <circle id="XMLID_376_" fill="#82CCDC" cx="617.6" cy="1060.8" r="1"></circle>
            <circle id="XMLID_375_" fill="#82CCDC" cx="123.6" cy="1072.8" r="1"></circle>
            <circle id="XMLID_374_" fill="#82CCDC" cx="36.6" cy="749.8" r="1"></circle>
            <circle id="XMLID_373_" fill="#82CCDC" cx="599.6" cy="613.8" r="1"></circle>
            <circle id="XMLID_372_" fill="#82CCDC" cx="252.6" cy="879.8" r="1"></circle>
            <circle id="XMLID_33_" fill="#82CCDC" cx="254.6" cy="574.8" r="1"></circle>
            <circle id="XMLID_371_" fill="#82CCDC" cx="88.6" cy="786.8" r="1"></circle>
            <polygon id="XMLID_370_" fill="#82CCDC" points="1347.7 1060.9 1349.4 1063.9 1352.5 1065.6 1349.4 1067.3 1347.7 1070.4 1346 1067.3 1343 1065.6 1346 1063.9"></polygon>
            <polygon id="XMLID_37_" fill="#82CCDC" points="993.7 694.9 995.4 697.9 998.5 699.6 995.4 701.3 993.7 704.4 992 701.3 989 699.6 992 697.9"></polygon>
            <polygon id="XMLID_9_" fill="#82CCDC" points="504.7 947.9 506.4 950.9 509.5 952.6 506.4 954.3 504.7 957.4 503 954.3 500 952.6 503 950.9"></polygon>
            <circle id="XMLID_8_" stroke="#82CCDC" stroke-width="2" cx="25.8" cy="969.2" r="5.1"></circle>
            <circle id="XMLID_27_" stroke="#82CCDC" stroke-width="2" cx="1846.8" cy="681.2" r="5.1"></circle>
            <path d="M640.6,430 L576,474" id="XMLID_44_" stroke="#82CCDC" stroke-width="2" stroke-dasharray="0,10,10,10,50,10"></path>
            <path d="M1119,766 L1164,818.8" id="XMLID_44_" stroke="#82CCDC" stroke-width="2" stroke-dasharray="0,10,10,10,50,10"></path>
            <path d="M1239,1095 L1192,1153.8" id="XMLID_44_" stroke="#82CCDC" stroke-width="2" stroke-dasharray="0,10,10,10,50,10"></path>
            <circle id="XMLID_2_" fill="#82CCDC" cx="688.6" cy="952.8" r="1"></circle>
            <circle id="XMLID_10_" fill="#82CCDC" cx="1071.6" cy="614.8" r="1"></circle>
            <circle id="XMLID_11_" fill="#82CCDC" cx="1115.6" cy="662.8" r="1"></circle>
            <circle id="XMLID_38_" fill="#82CCDC" cx="618.6" cy="851.8" r="1"></circle>
            <circle id="XMLID_39_" fill="#82CCDC" cx="844.6" cy="768.8" r="1"></circle>
            <circle id="XMLID_40_" fill="#82CCDC" cx="916.6" cy="865.8" r="1"></circle>
            <circle id="XMLID_41_" fill="#82CCDC" cx="962.6" cy="908.8" r="1"></circle>
            <circle id="XMLID_42_" fill="#82CCDC" cx="1162.6" cy="749.8" r="1"></circle>
            <circle id="XMLID_43_" fill="#82CCDC" cx="1315.6" cy="878.8" r="1"></circle>
            <circle id="XMLID_45_" fill="#82CCDC" cx="1096.6" cy="748.8" r="1"></circle>
            <circle id="XMLID_47_" fill="#82CCDC" cx="932.6" cy="950.8" r="1"></circle>
            <circle id="XMLID_46_" fill="#82CCDC" cx="1086.6" cy="723.8" r="1"></circle>
            <circle id="XMLID_12_" fill="#82CCDC" cx="669.6" cy="725.8" r="1"></circle>
            <circle id="XMLID_13_" fill="#82CCDC" cx="1285.6" cy="704.8" r="1"></circle>
            <circle id="XMLID_14_" fill="#82CCDC" cx="1192.6" cy="974.8" r="1"></circle>
            <circle id="XMLID_25_" fill="#82CCDC" cx="1139.6" cy="1095.8" r="1"></circle>
            <circle id="XMLID_32_" fill="#82CCDC" cx="761.6" cy="1130.8" r="1"></circle>
            <circle id="XMLID_26_" fill="#82CCDC" cx="1286.6" cy="592.8" r="1"></circle>
            <circle id="XMLID_15_" fill="#82CCDC" cx="1138.6" cy="948.8" r="1"></circle>
            <circle id="XMLID_16_" fill="#82CCDC" cx="1491.6" cy="1010.8" r="1"></circle>
            <circle id="XMLID_36_" fill="#82CCDC" cx="1474.6" cy="930.8" r="1"></circle>
            <circle id="XMLID_17_" fill="#82CCDC" cx="1517.6" cy="839.8" r="1"></circle>
            <circle id="XMLID_18_" fill="#82CCDC" cx="1588.6" cy="591.8" r="1"></circle>
            <circle id="XMLID_19_" fill="#82CCDC" cx="1705.6" cy="817.8" r="1"></circle>
            <circle id="XMLID_20_" fill="#82CCDC" cx="1712.6" cy="663.8" r="1"></circle>
            <circle id="XMLID_21_" fill="#82CCDC" cx="1804.6" cy="1072.8" r="1"></circle>
            <circle id="XMLID_22_" fill="#82CCDC" cx="1.6" cy="1144.8" r="1"></circle>
            <circle id="XMLID_23_" fill="#82CCDC" cx="1518.6" cy="1129.8" r="1"></circle>
            <circle id="XMLID_24_" fill="#82CCDC" cx="1728.6" cy="850.8" r="1"></circle>
            <circle id="XMLID_30_" fill="#82CCDC" cx="1648.6" cy="1061.8" r="1"></circle>
            <circle id="XMLID_31_" fill="#82CCDC" cx="1630.6" cy="1094.8" r="1"></circle>
            <circle id="XMLID_28_" fill="#82CCDC" cx="885.6" cy="1065.8" r="1"></circle>
            <circle id="XMLID_383_" fill="#82CCDC" cx="772.1" cy="1579.1" r="3.1"></circle>
            <circle id="XMLID_5_" fill="#82CCDC" cx="827.7" cy="1191.9" r="3.1"></circle>
            <circle id="XMLID_6_" fill="#82CCDC" cx="324.7" cy="1264.9" r="3.1"></circle>
            <circle id="XMLID_7_" fill="#82CCDC" cx="1589.7" cy="1500.9" r="3.1"></circle>
            <circle id="XMLID_382_" fill="#82CCDC" cx="1021.7" cy="1608.9" r="3.1"></circle>
            <circle id="XMLID_381_" fill="#82CCDC" cx="408.6" cy="1640.8" r="1"></circle>
            <polygon id="XMLID_380_" fill="#82CCDC" points="199.893266 1594.93858 202.393266 1599.53858 206.893266 1601.93858 202.393266 1604.43858 199.893266 1609.03858 197.393266 1604.43858 192.893266 1601.93858 197.393266 1599.53858"></polygon>
            <polygon id="XMLID_3_" fill="#82CCDC" points="1706 1595.3 1708.5 1599.9 1713 1602.3 1708.5 1604.8 1706 1609.4 1703.5 1604.8 1699 1602.3 1703.5 1599.9"></polygon>
            <polygon id="XMLID_4_" fill="#82CCDC" points="125 1299.3 127.5 1303.9 132 1306.3 127.5 1308.8 125 1313.4 122.5 1308.8 118 1306.3 122.5 1303.9"></polygon>
            <circle id="XMLID_379_" fill="#82CCDC" cx="449.6" cy="1582.8" r="1"></circle>
            <circle id="XMLID_378_" fill="#82CCDC" cx="385.6" cy="1500.8" r="1"></circle>
            <circle id="XMLID_34_" fill="#82CCDC" cx="433.6" cy="1379.8" r="1"></circle>
            <circle id="XMLID_35_" fill="#82CCDC" cx="384.6" cy="1368.8" r="1"></circle>
            <circle id="XMLID_377_" fill="#82CCDC" cx="688.6" cy="1523.8" r="1"></circle>
            <circle id="XMLID_376_" fill="#82CCDC" cx="617.6" cy="1633.8" r="1"></circle>
            <circle id="XMLID_375_" fill="#82CCDC" cx="123.6" cy="1645.8" r="1"></circle>
            <circle id="XMLID_374_" fill="#82CCDC" cx="36.6" cy="1322.8" r="1"></circle>
            <circle id="XMLID_373_" fill="#82CCDC" cx="599.6" cy="1186.8" r="1"></circle>
            <circle id="XMLID_372_" fill="#82CCDC" cx="252.6" cy="1452.8" r="1"></circle>
            <circle id="XMLID_33_" fill="#82CCDC" cx="254.6" cy="1147.8" r="1"></circle>
            <circle id="XMLID_371_" fill="#82CCDC" cx="88.6" cy="1359.8" r="1"></circle>
            <polygon id="XMLID_370_" fill="#82CCDC" points="1347.7 1633.9 1349.4 1636.9 1352.5 1638.6 1349.4 1640.3 1347.7 1643.4 1346 1640.3 1343 1638.6 1346 1636.9"></polygon>
            <polygon id="XMLID_37_" fill="#82CCDC" points="993.7 1267.9 995.4 1270.9 998.5 1272.6 995.4 1274.3 993.7 1277.4 992 1274.3 989 1272.6 992 1270.9"></polygon>
            <polygon id="XMLID_9_" fill="#82CCDC" points="504.7 1520.9 506.4 1523.9 509.5 1525.6 506.4 1527.3 504.7 1530.4 503 1527.3 500 1525.6 503 1523.9"></polygon>
            <circle id="XMLID_8_" stroke="#82CCDC" stroke-width="2" cx="25.8" cy="1542.2" r="5.1"></circle>
            <circle id="XMLID_27_" stroke="#82CCDC" stroke-width="2" cx="1846.8" cy="1254.2" r="5.1"></circle>
            <path d="M552.8,1340.8 L597.000001,1254" id="XMLID_44_" stroke="#82CCDC" stroke-width="2" stroke-dasharray="0,10,10,10,50,10"></path>
            <circle id="XMLID_2_" fill="#82CCDC" cx="688.6" cy="1525.8" r="1"></circle>
            <circle id="XMLID_10_" fill="#82CCDC" cx="1071.6" cy="1187.8" r="1"></circle>
            <circle id="XMLID_11_" fill="#82CCDC" cx="1115.6" cy="1235.8" r="1"></circle>
            <circle id="XMLID_38_" fill="#82CCDC" cx="618.6" cy="1424.8" r="1"></circle>
            <circle id="XMLID_39_" fill="#82CCDC" cx="844.6" cy="1341.8" r="1"></circle>
            <circle id="XMLID_40_" fill="#82CCDC" cx="916.6" cy="1438.8" r="1"></circle>
            <circle id="XMLID_41_" fill="#82CCDC" cx="962.6" cy="1481.8" r="1"></circle>
            <circle id="XMLID_42_" fill="#82CCDC" cx="1162.6" cy="1322.8" r="1"></circle>
            <circle id="XMLID_43_" fill="#82CCDC" cx="1315.6" cy="1451.8" r="1"></circle>
            <circle id="XMLID_45_" fill="#82CCDC" cx="1096.6" cy="1321.8" r="1"></circle>
            <circle id="XMLID_47_" fill="#82CCDC" cx="932.6" cy="1523.8" r="1"></circle>
            <circle id="XMLID_46_" fill="#82CCDC" cx="1086.6" cy="1296.8" r="1"></circle>
            <circle id="XMLID_12_" fill="#82CCDC" cx="669.6" cy="1298.8" r="1"></circle>
            <circle id="XMLID_13_" fill="#82CCDC" cx="1285.6" cy="1277.8" r="1"></circle>
            <circle id="XMLID_14_" fill="#82CCDC" cx="1192.6" cy="1547.8" r="1"></circle>
            <circle id="XMLID_25_" fill="#82CCDC" cx="1139.6" cy="1668.8" r="1"></circle>
            <circle id="XMLID_32_" fill="#82CCDC" cx="761.6" cy="1703.8" r="1"></circle>
            <circle id="XMLID_26_" fill="#82CCDC" cx="1286.6" cy="1165.8" r="1"></circle>
            <circle id="XMLID_15_" fill="#82CCDC" cx="1138.6" cy="1521.8" r="1"></circle>
            <circle id="XMLID_16_" fill="#82CCDC" cx="1491.6" cy="1583.8" r="1"></circle>
            <circle id="XMLID_36_" fill="#82CCDC" cx="1474.6" cy="1503.8" r="1"></circle>
            <circle id="XMLID_17_" fill="#82CCDC" cx="1517.6" cy="1412.8" r="1"></circle>
            <circle id="XMLID_18_" fill="#82CCDC" cx="1588.6" cy="1164.8" r="1"></circle>
            <circle id="XMLID_19_" fill="#82CCDC" cx="1705.6" cy="1390.8" r="1"></circle>
            <circle id="XMLID_20_" fill="#82CCDC" cx="1712.6" cy="1236.8" r="1"></circle>
            <circle id="XMLID_21_" fill="#82CCDC" cx="1804.6" cy="1645.8" r="1"></circle>
            <circle id="XMLID_22_" fill="#82CCDC" cx="1.6" cy="1717.8" r="1"></circle>
            <circle id="XMLID_23_" fill="#82CCDC" cx="1518.6" cy="1702.8" r="1"></circle>
            <circle id="XMLID_24_" fill="#82CCDC" cx="1728.6" cy="1423.8" r="1"></circle>
            <circle id="XMLID_30_" fill="#82CCDC" cx="1648.6" cy="1634.8" r="1"></circle>
            <circle id="XMLID_31_" fill="#82CCDC" cx="1630.6" cy="1667.8" r="1"></circle>
            <circle id="XMLID_28_" fill="#82CCDC" cx="885.6" cy="1638.8" r="1"></circle>
            <circle id="XMLID_383_" fill="#82CCDC" cx="858.7" cy="514.9" r="3.1"></circle>
            <circle id="XMLID_5_" fill="#82CCDC" cx="827.7" cy="45.9" r="3.1"></circle>
            <circle id="XMLID_6_" fill="#82CCDC" cx="324.7" cy="118.9" r="3.1"></circle>
            <circle id="XMLID_7_" fill="#82CCDC" cx="1589.7" cy="354.9" r="3.1"></circle>
            <circle id="XMLID_382_" fill="#82CCDC" cx="1021.7" cy="462.9" r="3.1"></circle>
            <circle id="XMLID_381_" fill="#82CCDC" cx="408.6" cy="494.8" r="1"></circle>
            <polygon id="XMLID_380_" fill="#82CCDC" points="245 481 247.5 486.6 252 489 247.5 491.5 245 496.1 242.5 491.5 238 489 242.5 486.6"></polygon>
            <polygon id="XMLID_3_" fill="#82CCDC" points="1706 449.3 1708.5 453.9 1713 456.3 1708.5 458.8 1706 463.4 1703.5 458.8 1699 456.3 1703.5 453.9"></polygon>
            <polygon id="XMLID_4_" fill="#82CCDC" points="125 153.3 127.5 157.9 132 160.3 127.5 162.8 125 167.4 122.5 162.8 118 160.3 122.5 157.9"></polygon>
            <circle id="XMLID_379_" fill="#82CCDC" cx="449.6" cy="436.8" r="1"></circle>
            <circle id="XMLID_378_" fill="#82CCDC" cx="385.6" cy="354.8" r="1"></circle>
            <circle id="XMLID_34_" fill="#82CCDC" cx="433.6" cy="233.8" r="1"></circle>
            <circle id="XMLID_35_" fill="#82CCDC" cx="384.6" cy="222.8" r="1"></circle>
            <circle id="XMLID_377_" fill="#82CCDC" cx="688.6" cy="377.8" r="1"></circle>
            <circle id="XMLID_376_" fill="#82CCDC" cx="617.6" cy="487.8" r="1"></circle>
            <circle id="XMLID_375_" fill="#82CCDC" cx="123.6" cy="499.8" r="1"></circle>
            <circle id="XMLID_374_" fill="#82CCDC" cx="36.6" cy="176.8" r="1"></circle>
            <circle id="XMLID_373_" fill="#82CCDC" cx="599.6" cy="40.8" r="1"></circle>
            <circle id="XMLID_372_" fill="#82CCDC" cx="252.6" cy="306.8" r="1"></circle>
            <circle id="XMLID_33_" fill="#82CCDC" cx="254.6" cy="1.8" r="1"></circle>
            <circle id="XMLID_371_" fill="#82CCDC" cx="88.6" cy="213.8" r="1"></circle>
            <polygon id="XMLID_370_" fill="#82CCDC" points="1347.7 487.9 1349.4 490.9 1352.5 492.6 1349.4 494.3 1347.7 497.4 1346 494.3 1343 492.6 1346 490.9"></polygon>
            <polygon id="XMLID_37_" fill="#82CCDC" points="993.7 121.9 995.4 124.9 998.5 126.6 995.4 128.3 993.7 131.4 992 128.3 989 126.6 992 124.9"></polygon>
            <polygon id="XMLID_9_" fill="#82CCDC" points="504.7 374.9 506.4 377.9 509.5 379.6 506.4 381.3 504.7 384.4 503 381.3 500 379.6 503 377.9"></polygon>
            <circle id="XMLID_8_" stroke="#82CCDC" stroke-width="2" cx="25.8" cy="396.2" r="5.1"></circle>
            <circle id="XMLID_27_" stroke="#82CCDC" stroke-width="2" cx="1846.8" cy="108.2" r="5.1"></circle>
            <path d="M1391.7,150.9 L1439.5,103.1" id="XMLID_44_" stroke="#82CCDC" stroke-width="2" stroke-dasharray="0,10,10,10,50,10"></path>
            <circle id="XMLID_2_" fill="#82CCDC" cx="688.6" cy="379.8" r="1"></circle>
            <circle id="XMLID_10_" fill="#82CCDC" cx="1071.6" cy="41.8" r="1"></circle>
            <circle id="XMLID_11_" fill="#82CCDC" cx="1115.6" cy="89.8" r="1"></circle>
            <circle id="XMLID_38_" fill="#82CCDC" cx="618.6" cy="278.8" r="1"></circle>
            <circle id="XMLID_39_" fill="#82CCDC" cx="844.6" cy="195.8" r="1"></circle>
            <circle id="XMLID_40_" fill="#82CCDC" cx="916.6" cy="292.8" r="1"></circle>
            <circle id="XMLID_41_" fill="#82CCDC" cx="962.6" cy="335.8" r="1"></circle>
            <circle id="XMLID_42_" fill="#82CCDC" cx="1162.6" cy="176.8" r="1"></circle>
            <circle id="XMLID_43_" fill="#82CCDC" cx="1315.6" cy="305.8" r="1"></circle>
            <circle id="XMLID_45_" fill="#82CCDC" cx="1096.6" cy="175.8" r="1"></circle>
            <circle id="XMLID_47_" fill="#82CCDC" cx="932.6" cy="377.8" r="1"></circle>
            <circle id="XMLID_46_" fill="#82CCDC" cx="1086.6" cy="150.8" r="1"></circle>
            <circle id="XMLID_12_" fill="#82CCDC" cx="669.6" cy="152.8" r="1"></circle>
            <circle id="XMLID_13_" fill="#82CCDC" cx="1285.6" cy="131.8" r="1"></circle>
            <circle id="XMLID_14_" fill="#82CCDC" cx="1192.6" cy="401.8" r="1"></circle>
            <circle id="XMLID_25_" fill="#82CCDC" cx="1139.6" cy="522.8" r="1"></circle>
            <circle id="XMLID_32_" fill="#82CCDC" cx="761.6" cy="557.8" r="1"></circle>
            <circle id="XMLID_26_" fill="#82CCDC" cx="1286.6" cy="19.8" r="1"></circle>
            <circle id="XMLID_15_" fill="#82CCDC" cx="1138.6" cy="375.8" r="1"></circle>
            <circle id="XMLID_16_" fill="#82CCDC" cx="1491.6" cy="437.8" r="1"></circle>
            <circle id="XMLID_36_" fill="#82CCDC" cx="1474.6" cy="357.8" r="1"></circle>
            <circle id="XMLID_17_" fill="#82CCDC" cx="1517.6" cy="266.8" r="1"></circle>
            <circle id="XMLID_18_" fill="#82CCDC" cx="1588.6" cy="18.8" r="1"></circle>
            <circle id="XMLID_19_" fill="#82CCDC" cx="1705.6" cy="244.8" r="1"></circle>
            <circle id="XMLID_20_" fill="#82CCDC" cx="1712.6" cy="90.8" r="1"></circle>
            <circle id="XMLID_21_" fill="#82CCDC" cx="1804.6" cy="499.8" r="1"></circle>
            <circle id="XMLID_22_" fill="#82CCDC" cx="1.6" cy="571.8" r="1"></circle>
            <circle id="XMLID_23_" fill="#82CCDC" cx="1518.6" cy="556.8" r="1"></circle>
            <circle id="XMLID_24_" fill="#82CCDC" cx="1728.6" cy="277.8" r="1"></circle>
            <circle id="XMLID_30_" fill="#82CCDC" cx="1648.6" cy="488.8" r="1"></circle>
            <circle id="XMLID_31_" fill="#82CCDC" cx="1630.6" cy="521.8" r="1"></circle>
            <circle id="XMLID_28_" fill="#82CCDC" cx="885.6" cy="492.8" r="1"></circle>
        </g>
    </g>
</svg>