<?xml version="1.0" encoding="UTF-8" standalone="no"?>
<svg width="1805px" height="545px" viewBox="0 0 1805 545" version="1.1" xmlns="http://www.w3.org/2000/svg" xmlns:xlink="http://www.w3.org/1999/xlink" xmlns:sketch="http://www.bohemiancoding.com/sketch/ns">
    <!-- Generator: Sketch 3.5.1 (25234) - http://www.bohemiancoding.com/sketch -->
    <title>stars</title>
    <desc>Created with Sketch.</desc>
    <defs></defs>
    <g id="Page-1" stroke="none" stroke-width="1" fill="none" fill-rule="evenodd" sketch:type="MSPage">
        <g id="Pre-launch_desktop" sketch:type="MSArtboardGroup" transform="translate(-73.000000, -21.000000)">
            <g id="stars" sketch:type="MSLayerGroup" transform="translate(74.000000, 21.000000)">
                <path d="M804.151,31.075 C804.151,32.774 802.774,34.15 801.076,34.15 C799.377,34.15 798,32.774 798,31.075 C798,29.376 799.377,28 801.076,28 C802.774,28 804.151,29.376 804.151,31.075" id="Fill-1" fill="#82CCDC" sketch:type="MSShapeGroup"></path>
                <path d="M301.151,104.075 C301.151,105.774 299.774,107.15 298.076,107.15 C296.377,107.15 295,105.774 295,104.075 C295,102.376 296.377,101 298.076,101 C299.774,101 301.151,102.376 301.151,104.075" id="Fill-1" fill="#82CCDC" sketch:type="MSShapeGroup"></path>
                <path d="M832.151,500.075 C832.151,501.774 830.774,503.15 829.076,503.15 C827.377,503.15 826,501.774 826,500.075 C826,498.376 827.377,497 829.076,497 C830.774,497 832.151,498.376 832.151,500.075" id="Fill-3" fill="#82CCDC" sketch:type="MSShapeGroup"></path>
                <path d="M1096,79 C1095.448,79 1095,78.552 1095,78 C1095,77.448 1095.448,77 1096,77 C1096.552,77 1097,77.448 1097,78 C1097,78.552 1096.552,79 1096,79 Z" id="Fill-5" fill="#82CCDC" sketch:type="MSShapeGroup"></path>
                <path d="M1291.018,0 L1293.499,4.536 L1298.036,7.018 L1293.499,9.499 L1291.018,14.035 L1288.537,9.499 L1284,7.018 L1288.537,4.536 L1291.018,0 Z" id="Fill-7" fill="#82CCDC" sketch:type="MSShapeGroup"></path>
                <path d="M179.018,498 L181.499,502.536 L186.036,505.018 L181.499,507.499 L179.018,512.035 L176.537,507.499 L172,505.018 L176.537,502.536 L179.018,498 Z" id="Fill-7" fill="#82CCDC" sketch:type="MSShapeGroup"></path>
                <path d="M1679.018,437 L1681.499,441.536 L1686.036,444.018 L1681.499,446.499 L1679.018,451.035 L1676.537,446.499 L1672,444.018 L1676.537,441.536 L1679.018,437 Z" id="Fill-7" fill="#82CCDC" sketch:type="MSShapeGroup"></path>
                <path d="M1489,254 C1489,254.552 1488.552,255 1488,255 C1487.448,255 1487,254.552 1487,254 C1487,253.448 1487.448,253 1488,253 C1488.552,253 1489,253.448 1489,254" id="Fill-9" fill="#82CCDC" sketch:type="MSShapeGroup"></path>
                <path d="M662,365 C662,365.552 661.552,366 661,366 C660.448,366 660,365.552 660,365 C660,364.448 660.448,364 661,364 C661.552,364 662,364.448 662,365" id="Fill-11" fill="#82CCDC" sketch:type="MSShapeGroup"></path>
                <path d="M591,466 C591,466.552 590.552,467 590,467 C589.448,467 589,466.552 589,466 C589,465.448 589.448,465 590,465 C590.552,465 591,465.448 591,466" id="Fill-11" fill="#82CCDC" sketch:type="MSShapeGroup"></path>
                <path d="M382,482 C382,482.552 381.552,483 381,483 C380.448,483 380,482.552 380,482 C380,481.448 380.448,481 381,481 C381.552,481 382,481.448 382,482" id="Fill-11" fill="#82CCDC" sketch:type="MSShapeGroup"></path>
                <path d="M99,481 C99,481.552 98.552,482 98,482 C97.448,482 97,481.552 97,481 C97,480.448 97.448,480 98,480 C98.552,480 99,480.448 99,481" id="Fill-11" fill="#82CCDC" sketch:type="MSShapeGroup"></path>
                <path d="M413,424 C413,424.552 412.552,425 412,425 C411.448,425 411,424.552 411,424 C411,423.448 411.448,423 412,423 C412.552,423 413,423.448 413,424" id="Fill-11" fill="#82CCDC" sketch:type="MSShapeGroup"></path>
                <path d="M636,140 C636,140.552 635.552,141 635,141 C634.448,141 634,140.552 634,140 C634,139.448 634.448,139 635,139 C635.552,139 636,139.448 636,140" id="Fill-11" fill="#82CCDC" sketch:type="MSShapeGroup"></path>
                <path d="M62,192 C62,192.552 61.552,193 61,193 C60.448,193 60,192.552 60,192 C60,191.448 60.448,191 61,191 C61.552,191 62,191.448 62,192" id="Fill-11" fill="#82CCDC" sketch:type="MSShapeGroup"></path>
                <path d="M1204,224 C1204,224.552 1203.552,225 1203,225 C1202.448,225 1202,224.552 1202,224 C1202,223.448 1202.448,223 1203,223 C1203.552,223 1204,223.448 1204,224" id="Fill-13" fill="#82CCDC" sketch:type="MSShapeGroup"></path>
                <path d="M1089,227 C1089,227.552 1088.552,228 1088,228 C1087.448,228 1087,227.552 1087,227 C1087,226.448 1087.448,226 1088,226 C1088.552,226 1089,226.448 1089,227" id="Fill-15" fill="#82CCDC" sketch:type="MSShapeGroup"></path>
                <path d="M1443,385 C1443,385.552 1442.552,386 1442,386 C1441.448,386 1441,385.552 1441,385 C1441,384.448 1441.448,384 1442,384 C1442.552,384 1443,384.448 1443,385" id="Fill-17" fill="#82CCDC" sketch:type="MSShapeGroup"></path>
                <path d="M1168,387 C1168,387.552 1167.552,388 1167,388 C1166.448,388 1166,387.552 1166,387 C1166,386.448 1166.448,386 1167,386 C1167.552,386 1168,386.448 1168,387" id="Fill-19" fill="#82CCDC" sketch:type="MSShapeGroup"></path>
                <path d="M1046,31 C1046,31.552 1045.552,32 1045,32 C1044.448,32 1044,31.552 1044,31 C1044,30.448 1044.448,30 1045,30 C1045.552,30 1046,30.448 1046,31" id="Fill-19" fill="#82CCDC" sketch:type="MSShapeGroup"></path>
                <path d="M12,166 C12,166.552 11.552,167 11,167 C10.448,167 10,166.552 10,166 C10,165.448 10.448,165 11,165 C11.552,165 12,165.448 12,166" id="Fill-19" fill="#82CCDC" sketch:type="MSShapeGroup"></path>
                <path d="M1804,138 C1804,138.552 1803.552,139 1803,139 C1802.448,139 1802,138.552 1802,138 C1802,137.448 1802.448,137 1803,137 C1803.552,137 1804,137.448 1804,138" id="Fill-19" fill="#82CCDC" sketch:type="MSShapeGroup"></path>
                <path d="M1688,294 C1688,294.552 1687.552,295 1687,295 C1686.448,295 1686,294.552 1686,294 C1686,293.448 1686.448,293 1687,293 C1687.552,293 1688,293.448 1688,294" id="Fill-19" fill="#82CCDC" sketch:type="MSShapeGroup"></path>
                <path d="M1778,488 C1778,488.552 1777.552,489 1777,489 C1776.448,489 1776,488.552 1776,488 C1776,487.448 1776.448,487 1777,487 C1777.552,487 1778,487.448 1778,488" id="Fill-19" fill="#82CCDC" sketch:type="MSShapeGroup"></path>
                <path d="M1491,544 C1491,544.552 1490.552,545 1490,545 C1489.448,545 1489,544.552 1489,544 C1489,543.448 1489.448,543 1490,543 C1490.552,543 1491,543.448 1491,544" id="Fill-19" fill="#82CCDC" sketch:type="MSShapeGroup"></path>
                <path d="M209,293 C208.448,293 208,292.552 208,292 C208,291.448 208.448,291 209,291 C209.552,291 210,291.448 210,292 C210,292.552 209.552,293 209,293 Z" id="Fill-19" fill="#82CCDC" sketch:type="MSShapeGroup"></path>
                <path d="M360,342 C359.448,342 359,341.552 359,341 C359,340.448 359.448,340 360,340 C360.552,340 361,340.448 361,341 C361,341.552 360.552,342 360,342 Z" id="Fill-19" fill="#82CCDC" sketch:type="MSShapeGroup"></path>
                <path d="M572,29 C571.448,29 571,28.552 571,28 C571,27.448 571.448,27 572,27 C572.552,27 573,27.448 573,28 C573,28.552 572.552,29 572,29 Z" id="Fill-19" fill="#82CCDC" sketch:type="MSShapeGroup"></path>
                <path d="M1115,511 C1115,511.552 1114.552,512 1114,512 C1113.448,512 1113,511.552 1113,511 C1113,510.448 1113.448,510 1114,510 C1114.552,510 1115,510.448 1115,511" id="Fill-21" fill="#82CCDC" sketch:type="MSShapeGroup"></path>
                <path d="M1349,343 C1349,343.552 1348.552,344 1348,344 C1347.448,344 1347,343.552 1347,343 C1347,342.448 1347.448,342 1348,342 C1348.552,342 1349,342.448 1349,343" id="Fill-23" fill="#82CCDC" sketch:type="MSShapeGroup"></path>
                <path d="M1114,367 C1114,367.552 1113.552,368 1113,368 C1112.448,368 1112,367.552 1112,367 C1112,366.448 1112.448,366 1113,366 C1113.552,366 1114,366.448 1114,367" id="Fill-25" fill="#82CCDC" sketch:type="MSShapeGroup"></path>
                <path d="M1320.749,478 L1322.428,481.07 L1325.498,482.749 L1322.428,484.428 L1320.749,487.499 L1319.07,484.428 L1316,482.749 L1319.07,481.07 L1320.749,478 Z" id="Fill-27" fill="#82CCDC" sketch:type="MSShapeGroup"></path>
                <path d="M1606.285,172.142 C1606.285,174.982 1603.983,177.284 1601.143,177.284 C1598.302,177.284 1596,174.982 1596,172.142 C1596,169.302 1598.302,167 1601.143,167 C1603.983,167 1606.285,169.302 1606.285,172.142 L1606.285,172.142 Z" id="Stroke-29" stroke="#82CCDC" stroke-width="2" stroke-linecap="round" stroke-linejoin="round" sketch:type="MSShapeGroup"></path>
                <path d="M10.285,379.142 C10.285,381.982 7.983,384.284 5.143,384.284 C2.302,384.284 0,381.982 0,379.142 C0,376.302 2.302,374 5.143,374 C7.983,374 10.285,376.302 10.285,379.142 L10.285,379.142 Z" id="Stroke-29" stroke="#82CCDC" stroke-width="2" stroke-linecap="round" stroke-linejoin="round" sketch:type="MSShapeGroup"></path>
                <path d="M1404.1235,101.0635 L1451.8465,53.3405" id="Stroke-31" stroke="#82CCDC" stroke-width="2" stroke-linecap="round" stroke-linejoin="round" stroke-dasharray="0,10,10,10,50,10" sketch:type="MSShapeGroup"></path>
            </g>
        </g>
    </g>
</svg>