<svg xmlns="http://www.w3.org/2000/svg" viewBox="0 0 1920 600" enable-background="new 0 0 1920 600"><style type="text/css">.st0{fill:#82CCDC;} .st1{fill:none;stroke:#82CCDC;stroke-width:2;stroke-linecap:round;stroke-linejoin:round;stroke-miterlimit:10;} .st2{fill:none;stroke:#82CCDC;stroke-width:2;stroke-linecap:round;stroke-linejoin:round;stroke-miterlimit:10;stroke-dasharray:0,10,10,10,50,10;}</style><circle id="XMLID_383_" class="st0" cx="886.7" cy="528.9" r="3.1"/><circle id="XMLID_5_" class="st0" cx="855.7" cy="59.9" r="3.1"/><circle id="XMLID_6_" class="st0" cx="352.7" cy="132.9" r="3.1"/><circle id="XMLID_7_" class="st0" cx="1617.7" cy="368.9" r="3.1"/><circle id="XMLID_382_" class="st0" cx="1049.7" cy="476.9" r="3.1"/><circle id="XMLID_381_" class="st0" cx="436.6" cy="508.8" r="1"/><path id="XMLID_380_" class="st0" d="M234 529.3l2.5 4.6 4.5 2.4-4.5 2.5-2.5 4.6-2.5-4.6-4.5-2.5 4.5-2.4z"/><path id="XMLID_3_" class="st0" d="M1734 463.3l2.5 4.6 4.5 2.4-4.5 2.5-2.5 4.6-2.5-4.6-4.5-2.5 4.5-2.4z"/><path id="XMLID_4_" class="st0" d="M153 167.3l2.5 4.6 4.5 2.4-4.5 2.5-2.5 4.6-2.5-4.6-4.5-2.5 4.5-2.4z"/><circle id="XMLID_379_" class="st0" cx="477.6" cy="450.8" r="1"/><circle id="XMLID_378_" class="st0" cx="413.6" cy="368.8" r="1"/><circle id="XMLID_34_" class="st0" cx="461.6" cy="247.8" r="1"/><circle id="XMLID_35_" class="st0" cx="412.6" cy="236.8" r="1"/><circle id="XMLID_377_" class="st0" cx="716.6" cy="391.8" r="1"/><circle id="XMLID_376_" class="st0" cx="645.6" cy="501.8" r="1"/><circle id="XMLID_375_" class="st0" cx="151.6" cy="513.8" r="1"/><circle id="XMLID_374_" class="st0" cx="64.6" cy="190.8" r="1"/><circle id="XMLID_373_" class="st0" cx="627.6" cy="54.8" r="1"/><circle id="XMLID_372_" class="st0" cx="280.6" cy="320.8" r="1"/><circle id="XMLID_33_" class="st0" cx="282.6" cy="15.8" r="1"/><circle id="XMLID_371_" class="st0" cx="116.6" cy="227.8" r="1"/><path id="XMLID_370_" class="st0" d="M1375.7 501.9l1.7 3 3.1 1.7-3.1 1.7-1.7 3.1-1.7-3.1-3-1.7 3-1.7z"/><path id="XMLID_37_" class="st0" d="M1021.7 135.9l1.7 3 3.1 1.7-3.1 1.7-1.7 3.1-1.7-3.1-3-1.7 3-1.7z"/><path id="XMLID_9_" class="st0" d="M532.7 388.9l1.7 3 3.1 1.7-3.1 1.7-1.7 3.1-1.7-3.1-3-1.7 3-1.7z"/><circle id="XMLID_8_" class="st1" cx="53.8" cy="410.2" r="5.1"/><circle id="XMLID_27_" class="st1" cx="1874.8" cy="122.2" r="5.1"/><path id="XMLID_44_" class="st2" d="M1419.7 164.9l47.8-47.8"/><circle id="XMLID_2_" class="st0" cx="716.6" cy="393.8" r="1"/><circle id="XMLID_10_" class="st0" cx="1099.6" cy="55.8" r="1"/><circle id="XMLID_11_" class="st0" cx="1143.6" cy="103.8" r="1"/><circle id="XMLID_38_" class="st0" cx="646.6" cy="292.8" r="1"/><circle id="XMLID_39_" class="st0" cx="872.6" cy="209.8" r="1"/><circle id="XMLID_40_" class="st0" cx="944.6" cy="306.8" r="1"/><circle id="XMLID_41_" class="st0" cx="990.6" cy="349.8" r="1"/><circle id="XMLID_42_" class="st0" cx="1190.6" cy="190.8" r="1"/><circle id="XMLID_43_" class="st0" cx="1343.6" cy="319.8" r="1"/><circle id="XMLID_45_" class="st0" cx="1124.6" cy="189.8" r="1"/><circle id="XMLID_47_" class="st0" cx="960.6" cy="391.8" r="1"/><circle id="XMLID_46_" class="st0" cx="1114.6" cy="164.8" r="1"/><circle id="XMLID_12_" class="st0" cx="697.6" cy="166.8" r="1"/><circle id="XMLID_13_" class="st0" cx="1313.6" cy="145.8" r="1"/><circle id="XMLID_14_" class="st0" cx="1220.6" cy="415.8" r="1"/><circle id="XMLID_25_" class="st0" cx="1167.6" cy="536.8" r="1"/><circle id="XMLID_32_" class="st0" cx="789.6" cy="571.8" r="1"/><circle id="XMLID_26_" class="st0" cx="1314.6" cy="33.8" r="1"/><circle id="XMLID_15_" class="st0" cx="1166.6" cy="389.8" r="1"/><circle id="XMLID_16_" class="st0" cx="1519.6" cy="451.8" r="1"/><circle id="XMLID_36_" class="st0" cx="1502.6" cy="371.8" r="1"/><circle id="XMLID_17_" class="st0" cx="1545.6" cy="280.8" r="1"/><circle id="XMLID_18_" class="st0" cx="1616.6" cy="32.8" r="1"/><circle id="XMLID_19_" class="st0" cx="1733.6" cy="258.8" r="1"/><circle id="XMLID_20_" class="st0" cx="1740.6" cy="104.8" r="1"/><circle id="XMLID_21_" class="st0" cx="1832.6" cy="513.8" r="1"/><circle id="XMLID_22_" class="st0" cx="29.6" cy="585.8" r="1"/><circle id="XMLID_23_" class="st0" cx="1546.6" cy="570.8" r="1"/><circle id="XMLID_24_" class="st0" cx="1756.6" cy="291.8" r="1"/><circle id="XMLID_30_" class="st0" cx="1676.6" cy="502.8" r="1"/><circle id="XMLID_31_" class="st0" cx="1658.6" cy="535.8" r="1"/><circle id="XMLID_28_" class="st0" cx="913.6" cy="506.8" r="1"/></svg>