<svg xmlns="http://www.w3.org/2000/svg" viewBox="0 0 80 80" enable-background="new 0 0 80 80"><style type="text/css">.st0{fill:#55ACEE;}</style><path id="XMLID_8_" class="st0" d="M80 15.2c-2.9 1.3-6.1 2.2-9.4 2.6 3.4-2 6-5.2 7.2-9.1-3.2 1.9-6.7 3.2-10.4 4-3-3.2-7.3-5.2-12-5.2-9.1 0-16.4 7.3-16.4 16.4 0 1.3.1 2.5.4 3.7-13.6-.6-25.7-7.2-33.8-17.1-1.4 2.4-2.2 5.2-2.2 8.3 0 5.7 2.9 10.7 7.3 13.7-2.7-.1-5.2-.8-7.4-2.1v.2c0 8 5.7 14.6 13.2 16.1-1.4.4-2.8.6-4.3.6-1.1 0-2.1-.1-3.1-.3 2.1 6.5 8.2 11.3 15.3 11.4-5.6 4.4-12.7 7-20.4 7-1.3 0-2.6-.1-3.9-.2 7.3 4.7 15.9 7.4 25.2 7.4 30.2 0 46.7-25 46.7-46.7v-2.1c3-2.4 5.8-5.3 8-8.6z"/></svg>